<?xml version="1.0" encoding="UTF-8" standalone="no"?>
<svg
   xmlns:dc="http://purl.org/dc/elements/1.1/"
   xmlns:cc="http://creativecommons.org/ns#"
   xmlns:rdf="http://www.w3.org/1999/02/22-rdf-syntax-ns#"
   xmlns:svg="http://www.w3.org/2000/svg"
   xmlns="http://www.w3.org/2000/svg"
   xmlns:sodipodi="http://sodipodi.sourceforge.net/DTD/sodipodi-0.dtd"
   xmlns:inkscape="http://www.inkscape.org/namespaces/inkscape"
   sodipodi:docname="logo.svg"
   inkscape:version="0.92.5 (2060ec1f9f, 2020-04-08)"
   id="svg8"
   version="1.1"
   viewBox="0 0 297 210"
   height="100px"
   width="100px"
   inkscape:export-filename="/home/arikbartzadok/Desktop/Jessica Sweet's/logo.png"
   inkscape:export-xdpi="96"
   inkscape:export-ydpi="96">
  <defs
     id="defs2" />
  <sodipodi:namedview
     inkscape:window-maximized="1"
     inkscape:window-y="0"
     inkscape:window-x="0"
     inkscape:window-height="740"
     inkscape:window-width="1366"
     inkscape:snap-global="false"
     inkscape:guide-bbox="true"
     showguides="false"
     showgrid="false"
     inkscape:document-rotation="0"
     inkscape:current-layer="layer1"
     inkscape:document-units="mm"
     inkscape:cy="414.82004"
     inkscape:cx="528.71944"
     inkscape:zoom="0.47567912"
     inkscape:pageshadow="2"
     inkscape:pageopacity="0.0"
     borderopacity="1.0"
     bordercolor="#666666"
     pagecolor="#ffffff"
     id="base" />
  <metadata
     id="metadata5">
    <rdf:RDF>
      <cc:Work
         rdf:about="">
        <dc:format>image/svg+xml</dc:format>
        <dc:type
           rdf:resource="http://purl.org/dc/dcmitype/StillImage" />
        <dc:title />
      </cc:Work>
    </rdf:RDF>
  </metadata>
  <g
     id="layer1"
     inkscape:groupmode="layer"
     inkscape:label="Layer 1">
    <circle
       ry="86.724533"
       rx="85.93792"
       cy="125.66208"
       cx="139.03458"
       id="path3013"
       style="fill:#452c19;fill-opacity:1;stroke:none;stroke-width:0.19874;stroke-opacity:1" />
    <circle
       r="68.477203"
       cy="95.524857"
       cx="144.32788"
       id="path3065"
       style="fill:#ffffff;fill-opacity:1;stroke:none;stroke-width:0.13842295;stroke-opacity:1" />
    <g
       transform="matrix(1.1855989,0,0,1.1855989,70.3455,14.061287)"
       id="g3011">
      <ellipse
         style="fill:#bbf7ff;fill-opacity:1;stroke:none;stroke-width:0.197914"
         id="path858"
         cx="72.268959"
         cy="77.601082"
         rx="37.698299"
         ry="15.372612"
         transform="matrix(0.99231853,0.12370906,-0.12907942,0.99163426,0,0)" />
      <path
         style="fill:#ffda6b;fill-opacity:1;stroke:none;stroke-width:0.17385501px;stroke-linecap:butt;stroke-linejoin:miter;stroke-opacity:1"
         d="m 33.897382,55.49173 c -1.571439,2.881581 -1.408814,26.287336 -1.408814,26.287336 0,0 -1.617958,3.455567 -0.192105,3.58453 l 55.612434,5.029921 c 0,0 2.469646,1.092954 3.921734,0.810946 3.127739,-0.60743 0.417331,-27.201458 0.417331,-27.201458 0,0 1.410001,-3.220446 0.08296,-3.337934 L 38.334875,55.884599 c 0,0 -3.821709,-1.522038 -4.437493,-0.392869 z"
         id="path33"
         sodipodi:nodetypes="scscscscs"
         inkscape:connector-curvature="0" />
      <path
         style="fill:#ff3a4c;fill-opacity:1;stroke:none;stroke-width:0.19038101px;stroke-linecap:butt;stroke-linejoin:miter;stroke-opacity:1"
         d="m 36.459512,58.605792 c 0.437523,9.968374 -4.913482,12.4455 -4.912633,-1.671423 2.66e-4,-4.368154 13.53292,-9.626893 18.859985,-10.464832 15.094242,-2.374298 37.876227,14.204942 42.710077,14.42357 0.222981,4.71274 -2.030627,7.043247 -2.78727,4.083617 -0.468923,-0.624535 -3.748387,-0.65803 -5.492626,-1.227473 -1.922458,-0.627631 -5.271545,-0.983249 -8.527019,-0.272224 -1.804804,0.394185 -3.791675,-0.283509 -5.796197,-0.370001 -1.798637,-0.07761 -3.552792,0.202447 -4.887629,-0.428329 0.64912,7.879155 -3.723807,3.777775 -4.536575,0.851724 -0.81276,-2.92605 -4.145866,-0.822094 -6.217378,-1.425938 -2.492125,-0.315927 -4.264038,-1.563882 -7.725009,-1.681951 -2.846546,0.413658 -5.06422,-0.208301 -6.884674,-1.096238 0.500562,7.593785 -5.588248,6.546693 -3.803052,-0.720502 z"
         id="path2781"
         sodipodi:nodetypes="cssccsssczcccc"
         inkscape:connector-curvature="0" />
      <path
         style="fill:#ffe6ad;fill-opacity:1;stroke:none;stroke-width:0.204184px;stroke-linecap:butt;stroke-linejoin:miter;stroke-opacity:1"
         d="m 52.90735,46.873909 c 0.17534,-1.004844 -1.557322,-2.011457 2.360347,-3.01283 4.545713,-0.03518 2.047587,-3.011445 3.446011,-5.525244 1.727711,2.337887 5.413972,3.862475 5.023638,7.079884 0,0 5.029653,4.789052 1.950779,7.833625 -3.078875,3.044575 -14.679041,2.019221 -17.021212,-1.9934 -2.34217,-4.012621 3.452163,-5.714702 4.240437,-4.382035 z"
         id="path2783"
         sodipodi:nodetypes="cccczzc"
         inkscape:connector-curvature="0" />
      <ellipse
         style="fill:#e73a96;fill-opacity:1;stroke:none;stroke-width:0.128242"
         id="path2791"
         cx="79.50267"
         cy="28.992844"
         rx="4.5591135"
         ry="4.145885"
         transform="rotate(18.425737)" />
      <path
         style="fill:#ffe6ad;fill-opacity:1;stroke:none;stroke-width:0.128242;stroke-opacity:1"
         id="path2799"
         d="m 64.801902,55.824042 c 0.207629,0.08277 0.417856,0.163544 0.63632,0.211192 0.877898,0.191149 1.477403,0.207828 2.404673,0.08731 0.453564,-0.05895 0.940543,-0.150862 1.002163,-0.4844 0.01434,-0.07768 0.0041,-0.620334 -0.06215,-0.656102 l -0.292864,-0.158159 c -0.582752,-0.314705 -1.459973,0.383695 -2.130181,0.472398 -0.795859,0.105333 -0.835414,0.05526 -1.523146,0.04139 -0.07259,-0.0015 -0.145347,0.0033 -0.218022,0.005 -0.316475,0.277155 -0.07923,0.374778 0.183207,0.481384 z"
         sodipodi:nodetypes="ccsssssscc"
         inkscape:connector-curvature="0" />
      <path
         style="fill:#ffda6b;fill-opacity:1;stroke:none;stroke-width:0.104846;stroke-opacity:1"
         id="path2801"
         d="m 66.400577,51.236788 c 0.05217,-0.07677 0.104892,-0.153097 0.15643,-0.230348 0.271085,-0.406388 0.407007,-0.643516 0.743324,-1.031003 0.671753,-0.77396 1.458869,-1.420312 2.217874,-2.083289 0.765056,-0.648456 0.415227,-0.359359 1.046231,-0.872165 0.04547,-0.03556 -0.372705,-0.706168 -0.418157,-0.670601 v 0 c -0.828396,0.375999 -0.387654,0.140935 -1.307139,0.741685 -0.280856,0.234867 -0.575377,0.450867 -0.842557,0.704603 -0.536261,0.509287 -1.020601,1.07504 -1.421791,1.715338 -0.145379,0.232025 -0.265442,0.481696 -0.377253,0.733359 -0.154851,0.348592 -0.179129,0.507786 -0.254803,0.83989 -0.01205,0.03618 0.445797,0.188719 0.457852,0.152535 z"
         inkscape:connector-curvature="0" />
      <path
         sodipodi:nodetypes="ccccccc"
         d="M 87.650341,71.477826 C 69.893699,71.420903 51.7855,69.123249 33.062208,66.895706 c -0.557925,-0.05941 -0.582533,1.164687 -0.03979,1.26789 13.039136,2.203359 25.718684,5.535353 43.743293,4.7838 3.402089,-0.166432 13.330712,0.43351 15.46417,-0.399821 1.537102,-0.732211 -2.909018,-0.9824 -4.579453,-1.069713 z"
         id="path2836"
         style="fill:#452c19;fill-opacity:1;stroke:none;stroke-width:0.435693;stroke-opacity:1"
         inkscape:connector-curvature="0" />
      <path
         style="fill:#452c19;fill-opacity:1;stroke:none;stroke-width:0.435693;stroke-opacity:1"
         id="path2845"
         d="M 87.374084,79.417155 C 68.062438,78.451573 51.30682,77.072197 32.785951,74.835036 c -0.557924,-0.05941 -0.562098,2.016404 -0.01943,2.119603 13.087533,2.476044 26.196681,4.818015 43.32263,4.032142 3.40209,-0.166434 14.644394,1.416452 16.777852,0.583121 0.726954,-2.739573 -1.769193,-1.770658 -5.492907,-2.152746 z"
         sodipodi:nodetypes="sccccss"
         inkscape:connector-curvature="0" />
    </g>
    <g
       transform="matrix(1.2104354,0,0,1.2104354,-169.79007,61.815754)"
       id="g2981" />
  </g>
</svg>
